# xmcd
#
# Track frame offsets: 
#        150
#        19337
#        31708
#        49882
#        67309
#        85049
#        105366
#        121738
#        136370
#        153922
#        187638
#        203461
#        226622
#        243776
#        263810
#        279908
#
# Disc length: 4210 seconds
#
# Revision: 1
# Processed by: cddbd v1.5.2PL0 Copyright (c) Steve Scherf et al.
# Submitted via: ExactAudioCopyFreeDBPlugin 1.0
#
DISCID=bc107010
DTITLE=Jackson Taylor and The Sinners - Live At Billy Bob´s Texas
DYEAR=2014
DGENRE=Country
TTITLE0=Jack's Drunk Again
TTITLE1=Whiskey Sessions
TTITLE2=No Show
TTITLE3=Old Henry Rifle
TTITLE4=The Mirror
TTITLE5=Sunset
TTITLE6=Blue Agave
TTITLE7=Almost Persuaded
TTITLE8=Going Back To California
TTITLE9=He Stopped Loving Her-Purple Rain
TTITLE10=Barefeet on the Dash
TTITLE11=Ball and Chain
TTITLE12=Honky Tonk Heroes
TTITLE13=Faulkner by Dashboard Lights
TTITLE14=Shallow Grave
TTITLE15=Cocaine
EXTD=
EXTT0=
EXTT1=
EXTT2=
EXTT3=
EXTT4=
EXTT5=
EXTT6=
EXTT7=
EXTT8=
EXTT9=
EXTT10=
EXTT11=
EXTT12=
EXTT13=
EXTT14=
EXTT15=
PLAYORDER=
